<svg xmlns="http://www.w3.org/2000/svg" viewBox="0 -50 769.01 579.38"><defs><style>.cls-1{fill:#12100b;}.cls-2,.cls-7,.cls-8{fill:#58c4ef;}.cls-10,.cls-3,.cls-7{font-size:152.81px;}.cls-3{fill:#1d1d1b;}.cls-10,.cls-12,.cls-3,.cls-7,.cls-8{font-family:Flintstock-RoundOblique, Flintstock;font-style:oblique;}.cls-4{letter-spacing:-0.02em;}.cls-5{letter-spacing:-0.01em;}.cls-6{letter-spacing:0em;}.cls-8{font-size:30.37px;letter-spacing:-0.01em;}.cls-9{letter-spacing:0em;}.cls-10{fill:none;stroke:#fff;stroke-miterlimit:10;stroke-width:2.59px;}.cls-11{font-size:121.48px;}.cls-12{font-size:31.75px;fill:#fff;}.cls-13{letter-spacing:-0.08em;}.cls-14{letter-spacing:-0.01em;}</style></defs><g id="Слой_2" data-name="Слой 2"><g id="Layer_1" data-name="Layer 1"><path class="cls-1" d="M459,104.2a462.32,462.32,0,0,0-35.33-57C415.9,35.94,389.59,0,368.22,0s-47.65,35.88-55.35,47.15a463.07,463.07,0,0,0-35.37,57c-21.6,41.51-29.64,75-23.92,99.46,4.24,18.13,18.86,42.33,64.48,54.68a213.8,213.8,0,0,0,50.15,6.94,214,214,0,0,0,50.18-6.94C464,246,478.62,221.78,482.86,203.65,488.59,179.17,480.54,145.71,459,104.2Z"/><path class="cls-2" d="M368.22,8.89c-18.22,0-47,41.7-48.11,43.41-2.88,3.88-70.43,95.64-57.88,149.33,5.29,22.62,25.4,39.26,58.15,48.12a205.44,205.44,0,0,0,47.83,6.63h0a206.06,206.06,0,0,0,47.84-6.63c32.76-8.86,52.86-25.5,58.15-48.12,12.55-53.69-55-145.45-57.83-149.26C415.17,50.59,386.44,8.89,368.22,8.89Zm101.9,191.79c-11.92,51-100.62,51.5-101.9,51.5h0c-.76,0-89.94-.34-101.9-51.5-12.1-51.8,56.46-144.94,57.21-145.94,7.92-11.59,31.39-41.65,44.69-41.65S405,43.15,413,54.81C413.66,55.74,482.23,148.88,470.12,200.68Z"/><path class="cls-2" d="M339.1,75.83a7.72,7.72,0,0,1,7.71-7.71H389.6a7.72,7.72,0,0,1,7.72,7.72v11.4H339.1Z"/><path class="cls-2" d="M352.1,174.4A11.08,11.08,0,0,0,341,185.48v32.66h-6.64a16.15,16.15,0,0,1-16.14-16.28V121.5a26,26,0,0,1,26-26h26.89a13.69,13.69,0,0,1,13.65,13.65v52.34a13,13,0,0,1-13,13Z"/><path class="cls-2" d="M390.49,95.05a1,1,0,0,0-.71,1.68,18.47,18.47,0,0,1,5.42,12.81l.12,73.17c0,.49,0,.95-.08,1.41a12.91,12.91,0,0,1-3.94,7.95,14.38,14.38,0,0,1-8.93,3.59H362.61a12.09,12.09,0,0,0-1.21.07c-9.52.7-9.87,9.11-9.87,11v11.4h47.08v-.07c4.55-.36,19.6-2.71,19.6-17.81V122.77A27.73,27.73,0,0,0,390.49,95.05Z"/><polygon class="cls-2" points="623.11 379.54 158.8 463.98 164.03 414.28 628.35 329.84 623.11 379.54"/><text class="cls-3" transform="translate(55.31 424.01) rotate(-10.37)"><tspan class="cls-4">T</tspan><tspan x="77.01" y="0">IP</tspan><tspan class="cls-5" x="196.35" y="0">T</tspan><tspan class="cls-6" x="274.89" y="0">OPPER </tspan></text><text class="cls-7" transform="translate(50.14 421.72) rotate(-10.37)"><tspan class="cls-4">T</tspan><tspan x="77.01" y="0">IP</tspan><tspan class="cls-5" x="196.35" y="0">T</tspan><tspan x="274.89" y="0">OPPER </tspan></text><text class="cls-8" transform="translate(716.14 201.55) rotate(-10.37) scale(0.58)">T<tspan class="cls-9" x="15.52" y="0">M</tspan></text><text class="cls-10" transform="translate(42.97 416.55) rotate(-10.37)"><tspan class="cls-4">T</tspan><tspan x="77.01" y="0">IP</tspan><tspan class="cls-5" x="196.35" y="0">T</tspan><tspan x="274.89" y="0">OPPER </tspan><tspan class="cls-11"><tspan x="0" y="115.41" xml:space="preserve">        </tspan></tspan></text><text class="cls-12" transform="translate(176.06 445.53) rotate(-10.37)">THE CON<tspan class="cls-13" x="107.75" y="0">T</tspan><tspan class="cls-14" x="121.85" y="0">A</tspan><tspan x="139.47" y="0">CTLESS MENU UPGRADE</tspan></text></g></g></svg>