<svg xmlns="http://www.w3.org/2000/svg" width="359" height="78" viewBox="0 0 359 78"><g><g><path fill="currentColor" d="M79.588 21.386c0-.45 0-.837.063-1.286v-.579c.066-.322.323-.514.645-.58.128-.063.257-.063.386-.063h19.3c1.48.063 2.897.385 4.247 1.03 1.03.514 1.995 1.157 2.83 1.993.903.837 1.61 1.866 2.19 3.024.579 1.158.9 2.381 1.029 3.733.063.58.063 1.158.063 1.737v7.85c0 .9-.063 1.736-.192 2.572-.321 1.61-.966 3.09-1.995 4.375-1.736 2.252-4.054 3.603-6.82 4.118-.58.064-1.223.13-1.802.13h-9.393c-.642.063-.965.32-.965.964-.064.258-.064.451-.064.643v13.705c-.065.643-.321.9-.965.965h-7.721c-.45-.065-.707-.322-.773-.773 0-.192 0-.32-.063-.515zm9.522 17.18c0 .193 0 .385.064.578.065.323.257.58.515.644.129.064.258.064.386.13h9.2l.773-.195c.257-.193.515-.385.642-.708.065-.192.065-.385.129-.579v-1.029c.065-.966 0-1.994 0-2.96 0-1.22.065-2.444 0-3.602 0-.45 0-.837-.064-1.287 0-.32-.192-.644-.515-.837-.192-.192-.45-.257-.708-.32h-9.328c-.13 0-.194 0-.323.063-.384.065-.707.321-.707.773-.064.256-.064.45-.064.707z"/></g><g><path fill="currentColor" d="M124.684 42.298V64.495c0 .128 0 .323-.064.45-.065.451-.323.707-.707.772h-7.722c-.13 0-.258 0-.387-.065-.321-.063-.513-.256-.58-.579-.062-.129-.062-.32-.062-.45V19.972c0-.129 0-.322.063-.45.129-.323.323-.515.645-.58.192-.064.386-.064.578-.064h7.271c.128.064.257.064.386.064.258.128.45.257.515.515 0 .193.064.386.064.58v1.286z"/></g><g><path fill="currentColor" d="M129.506 42.298V30.524c0-.322 0-.643.065-1.03 0-2.444.772-4.696 2.38-6.627 1.802-2.187 4.117-3.539 6.948-3.86.516-.063.966-.129 1.416-.129h9.201c1.286 0 2.51.192 3.667.644 1.03.385 1.995.901 2.895 1.608.902.708 1.737 1.544 2.381 2.574.965 1.351 1.544 2.896 1.737 4.568.065.515.065.965.065 1.48v5.277c0 .191-.065.32-.129.45-.129.192-.323.385-.579.385-.129.064-.323.064-.45.064h-7.334c-.13 0-.259 0-.322-.064-.323-.065-.516-.257-.579-.579-.066-.129-.066-.257-.066-.386v-4.183l-.063-.643c0-.257-.065-.515-.129-.77a1.207 1.207 0 0 0-.773-.709c-.192-.129-.385-.129-.642-.194h-8.494l-.45.065c-.579.13-.965.514-1.094 1.093-.064.13-.064.323-.064.515-.065.193-.065.451-.065.708v23.034c0 .257 0 .515.065.836 0 .13 0 .321.064.515.13.58.515.837 1.094.964a.696.696 0 0 0 .322.065h8.685c.194-.065.387-.065.515-.128.387-.129.643-.387.837-.708.064-.258.13-.45.13-.708 0-.258.062-.515.062-.77v-4.442c0-.129 0-.256.066-.385.063-.257.256-.386.45-.45.13-.065.256-.065.385-.065.257-.064.451-.064.707-.064h6.241c.258 0 .516 0 .773.064.451 0 .772.321.837.771v.452c0 1.866.064 3.666 0 5.468 0 2.316-.773 4.376-2.188 6.241-1.093 1.481-2.509 2.64-4.247 3.347-1.287.578-2.573.9-3.924.9H139.994a10.856 10.856 0 0 1-5.147-1.48c-2.252-1.352-3.797-3.217-4.697-5.662a9.27 9.27 0 0 1-.579-3.28c-.065-.387-.065-.837-.065-1.288z"/></g><g><path fill="currentColor" d="M163.851 42.233V21.258c0-.385-.064-.772 0-1.158 0-.192 0-.45.065-.642.13-.324.321-.516.643-.516.257-.063.45-.063.644-.063h7.206c.13 0 .322.063.45.128.258.064.385.256.451.514 0 .194 0 .32.063.515V37.02c0 .452 0 .902.065 1.416 0 .129.064.193.064.322.065.193.323.257.45.129.194-.13.323-.258.452-.451.192-.322.385-.643.58-.901a342.281 342.281 0 0 1 3.922-6.37 592.856 592.856 0 0 1 4.055-6.625 225.7 225.7 0 0 1 2.51-4.118l.45-.773c.063-.063.192-.192.257-.321.256-.258.514-.387.835-.45h9.009l.257.063c.258.065.385.32.385.516 0 .129-.064.257-.127.384-.065.194-.194.323-.258.516l-3.475 5.79c-1.608 2.574-3.152 5.147-4.697 7.72-1.22 1.995-2.38 3.926-3.602 5.92l-.387.643c-.257.515-.257 1.03-.063 1.48.13.259.256.516.385.709.773 1.415 1.544 2.765 2.252 4.117.58.966 1.094 1.93 1.61 2.96l1.736 3.087c.58.966 1.093 1.996 1.608 2.96l1.737 3.089c.515.9 1.031 1.865 1.544 2.83l1.158 2.124c.194.258.323.579.452.9.127.129.127.258.127.45a.483.483 0 0 1-.32.452c-.13.064-.194.129-.322.129H187.078c-.32-.065-.579-.194-.773-.386a2.377 2.377 0 0 1-.45-.644c-.45-.772-.836-1.545-1.286-2.316l-2.445-4.44c-.515-.901-1.029-1.865-1.608-2.83l-1.738-3.218c-.064-.13-.128-.257-.193-.321-.129-.13-.192-.193-.257-.322a.7.7 0 0 0-.708 0c-.129.129-.193.193-.258.322-.192.257-.32.45-.45.708l-3.024 4.954a3.236 3.236 0 0 0-.515 1.737v4.888c0 .258 0 .516-.063.774v.45c-.066.32-.258.515-.579.579-.129.065-.258.065-.387.065h-7.528c-.128 0-.257-.065-.386-.065a.699.699 0 0 1-.514-.516c-.065-.127-.065-.321-.065-.513-.064-.387 0-.773 0-1.095V45.322z"/></g><g><path fill="currentColor" d="M199.366 42.298V20.936c0-.32 0-.642.064-1.029 0-.129 0-.32.065-.45a.7.7 0 0 1 .514-.515c.065 0 .194-.064.257-.064h7.786c.128 0 .192.064.32.064.259.128.387.257.45.515.066.193.066.321.066.514.064.323.064.707.064 1.031V55.23c0 .13 0 .256.065.385.064.258.258.387.45.452.193.063.387.127.579.127h14.284c.129 0 .32 0 .45.065.258.064.45.258.514.516.065.127.065.255.065.384v7.593c0 .064 0 .192-.065.321-.064.322-.256.516-.58.58-.128.064-.255.064-.384.064H200.46c-.13 0-.257 0-.386-.065-.321-.063-.58-.32-.644-.708v-.449c-.064-.322-.064-.579-.064-.9z"/></g><g><path fill="currentColor" d="M296.802 18.88c.579 0 .966.256 1.094.835.129.194.193.451.258.708.579 2.123 1.223 4.246 1.802 6.306.708 2.51 1.416 4.954 2.058 7.462.579 1.867 1.094 3.733 1.608 5.599.644 2.123 1.223 4.31 1.802 6.433.515 1.866 1.094 3.668 1.608 5.47.58 2.058 1.16 4.118 1.739 6.112l1.736 6.241c.064.193.129.45.129.643a.412.412 0 0 1 0 .386c0 .258-.13.45-.386.516-.064.063-.193.063-.322.063-.257.064-.45.064-.707.064h-6.82c-.258 0-.516 0-.773-.064-.45 0-.772-.258-.964-.644-.065-.192-.13-.321-.13-.514-.322-1.029-.578-1.994-.901-2.96-.192-.836-.45-1.607-.642-2.38l-.194-.58c-.193-.386-.45-.642-.901-.707-.192-.064-.45-.064-.707-.064h-9.91c-.513.064-.9.321-1.028.9-.13.258-.192.579-.321.901-.45 1.544-.902 3.088-1.287 4.633-.13.321-.194.579-.323.836-.127.387-.45.579-.835.579-.194.064-.323.064-.515.064h-7.4c-.193 0-.32 0-.514-.064h-.193c-.321-.129-.515-.386-.515-.644l.129-.708c.257-.771.45-1.608.707-2.444l2.51-8.815c.643-2.381 1.35-4.76 1.995-7.141.707-2.574 1.479-5.147 2.187-7.72.644-2.381 1.35-4.698 1.994-7.078l1.352-4.825c.514-1.802 1.094-3.668 1.608-5.534l.194-.773c.064-.192.192-.384.256-.579.194-.257.386-.449.708-.513zm-1.994 29.403c.129-.065.257-.065.323-.065a.62.62 0 0 0 .45-.579v-.516c-.066-.127-.066-.321-.13-.449-.45-1.672-.9-3.282-1.415-4.955-.257-.9-.45-1.8-.707-2.702-.13-.256-.193-.579-.322-.835a.356.356 0 0 0-.194-.323c-.13-.258-.385-.258-.513-.064-.13.129-.194.258-.194.387-.13.321-.258.643-.322.964a200.033 200.033 0 0 0-1.673 5.856c-.192.642-.385 1.221-.514 1.865a2.266 2.266 0 0 0-.128.643.535.535 0 0 0 .384.644c.129.064.258.064.387.129z"/></g><g><path fill="currentColor" d="M312.62 20.036c0-.192 0-.321.064-.513.13-.323.321-.516.708-.58.13-.065.257-.065.385-.065h18.98c1.995 0 3.861.58 5.534 1.608 2.444 1.545 3.99 3.733 4.762 6.499.192.837.321 1.737.321 2.574v9.2c0 .966-.129 1.866-.387 2.768-.45 1.67-1.286 3.216-2.508 4.439a11.314 11.314 0 0 1-2.123 1.802c-.194.127-.387.256-.515.45-.193.192-.258.45-.193.708.064.258.13.514.256.77.387 1.03.837 2.06 1.223 3.09 1.158 2.895 2.316 5.854 3.54 8.75l.964 2.445c.13.258.193.514.258.772.193.515-.065.9-.644.965h-8.686a1.233 1.233 0 0 1-.965-.708c-.192-.321-.32-.708-.45-1.03-1.287-3.087-2.51-6.176-3.797-9.263-.513-1.352-1.094-2.704-1.673-4.054a2.276 2.276 0 0 0-.256-.58c-.194-.386-.515-.578-.902-.643h-3.088c-.193 0-.385 0-.579.065-.385.063-.579.257-.643.579-.065.192-.065.386-.065.515v14.154c-.064.644-.385.9-1.029.965h-7.528c-.063 0-.192 0-.32-.064-.322-.065-.516-.257-.58-.644-.065-.13-.065-.257-.065-.386zm9.521 18.789c0 .192.065.385.065.513.13.258.258.387.514.45.13.066.258.066.386.13h9.201c.193-.064.387-.064.58-.13.386-.128.643-.385.772-.707.127-.193.193-.451.193-.643v-8.493l-.066-.45c-.127-.58-.513-.9-1.092-1.03-.194-.065-.323-.065-.45-.065h-9.072c-.129 0-.258.066-.387.066-.32.129-.515.32-.579.642-.065.129-.065.258-.065.387z"/></g><g><path fill="currentColor" d="M255.882 65.718h7.143c.708 0 1.48 0 2.187-.128a8.619 8.619 0 0 0 2.767-.837c1.222-.515 2.316-1.287 3.281-2.252a11.314 11.314 0 0 0 2.895-5.47c.13-.708.192-1.35.192-1.995V20.1c0-.13 0-.321-.063-.45-.065-.387-.32-.708-.837-.771h-7.591c-.065 0-.194 0-.323.063-.385.066-.579.258-.643.645-.065.128-.065.32-.065.513V54.329c0 .194 0 .386-.063.579-.129.707-.516 1.094-1.223 1.223-.129 0-.258.064-.385.064h-5.446l-2.714 9.523z"/></g><g><path fill="currentColor" d="M250.146 56.194h-11.469c-.13 0-.322 0-.451-.064-.321-.063-.515-.257-.578-.579 0-.128-.066-.257-.066-.386v-7.078c0-.129 0-.192.066-.32.063-.323.192-.516.513-.58.129-.064.323-.129.516-.129H249.293c.386-.064.643-.32.708-.642.063-.195.063-.323.063-.452v-7.399c0-.129-.063-.32-.063-.45a.783.783 0 0 0-.45-.45c-.194-.064-.323-.129-.516-.129H238.613c-.13 0-.258 0-.452-.064-.256-.065-.385-.257-.513-.515 0-.129-.066-.258-.066-.387v-7.077c0-.127 0-.256.066-.32.063-.323.192-.58.513-.644a1.19 1.19 0 0 1 .452-.129h14.282c.129 0 .323 0 .45-.065.387-.063.645-.258.645-.642.063-.258.063-.45.063-.708V20.423c0-.258 0-.452-.063-.708 0-.452-.322-.773-.772-.837h-24c-.192 0-.321 0-.45.064-.385.065-.58.257-.643.644 0 .192-.065.321-.065.514v44.395c0 .128 0 .321.065.45.064.386.258.644.579.707.129 0 .258.065.387.065H247.432z"/></g><g><path fill="currentColor" d="M346.146 20.342h-2.194V18.88h5.973v1.462h-2.193v5.747h-1.586z"/></g><g><path fill="currentColor" d="M351.142 18.88h1.71l1.895 3.048 1.895-3.048h1.71v7.209h-1.576v-4.706l-2.029 3.079h-.04l-2.01-3.05v4.677h-1.555z"/></g><g><path fill="currentColor" d="M24.888 21.042a2.399 2.399 0 0 1 2.4-2.4h13.317a2.4 2.4 0 0 1 2.4 2.4v3.549H24.888z"/></g><g><path fill="currentColor" d="M28.934 51.72a3.449 3.449 0 0 0-3.449 3.448v10.164h-2.067c-2.798 0-5.029-2.27-5.024-5.069V35.255A8.105 8.105 0 0 1 26.5 27.15h8.368a4.26 4.26 0 0 1 4.248 4.248v16.29a4.031 4.031 0 0 1-4.03 4.031z"/></g><g><path fill="currentColor" d="M40.88 27.023a.306.306 0 0 0-.22.522c1.035 1.057 1.686 2.486 1.686 3.987l.037 22.773a4.016 4.016 0 0 1-1.25 2.914c-.88.79-2.033 1.113-2.78 1.117h-6.15c-.128 0-.253.008-.377.021-2.962.218-3.072 2.834-3.072 3.428V65.332h14.654v-.02c1.417-.115 6.098-.845 6.098-5.545V35.65a8.626 8.626 0 0 0-8.627-8.626z"/></g><g><path fill="currentColor" d="M33.946 77.233c-.167 0-7.34-.02-14.886-2.063C8.867 72.411 2.61 67.232.964 60.194c-3.906-16.709 17.115-45.268 18.012-46.476.363-.53 9.303-13.51 14.974-13.51 5.67 0 14.61 12.98 14.989 13.531.882 1.187 21.903 29.746 17.997 46.455-1.645 7.038-7.902 12.217-18.096 14.976-7.545 2.043-14.718 2.063-14.89 2.063zm.005-1.307c.399 0 28.002-.157 31.712-16.03 3.769-16.12-17.572-45.107-17.788-45.398-2.48-3.627-9.787-12.984-13.925-12.984s-11.444 9.357-13.91 12.963c-.231.312-21.571 29.3-17.803 45.42 3.722 15.922 31.477 16.021 31.712 16.03z"/></g></g></svg>